HIERARCHY
ROOT mixamorig:Hips
{
	OFFSET -0.000008 104.274872 1.554316
	CHANNELS 6 Xposition Yposition Zposition Xrotation Yrotation Zrotation
	JOINT mixamorig:Spine
	{
		OFFSET -0.000005 10.181595 0.131519
		CHANNELS 6 Xposition Yposition Zposition Xrotation Yrotation Zrotation
		JOINT mixamorig:Spine1
		{
			OFFSET -0.000000 9.893959 -1.470707
			CHANNELS 6 Xposition Yposition Zposition Xrotation Yrotation Zrotation
			JOINT mixamorig:Spine2
			{
				OFFSET -0.000000 9.220757 -1.370641
				CHANNELS 6 Xposition Yposition Zposition Xrotation Yrotation Zrotation
				JOINT mixamorig:Neck
				{
					OFFSET 0.000001 16.740417 -2.049036
					CHANNELS 6 Xposition Yposition Zposition Xrotation Yrotation Zrotation
					JOINT mixamorig:Head
					{
						OFFSET 0.000000 9.617874 1.685006
						CHANNELS 6 Xposition Yposition Zposition Xrotation Yrotation Zrotation
						JOINT mixamorig:HeadTop_End
						{
							OFFSET 0.000002 22.037354 7.501101
							CHANNELS 6 Xposition Yposition Zposition Xrotation Yrotation Zrotation
							End Site
							{
								OFFSET 0.000168 2310.654297 -282.823242
							}
						}
					}
				}
				JOINT mixamorig:RightShoulder
				{
					OFFSET -4.569970 11.014908 -2.160885
					CHANNELS 6 Xposition Yposition Zposition Xrotation Yrotation Zrotation
					JOINT mixamorig:RightArm
					{
						OFFSET -10.592851 -0.524811 -2.232101
						CHANNELS 6 Xposition Yposition Zposition Xrotation Yrotation Zrotation
						JOINT mixamorig:RightForeArm
						{
							OFFSET -27.841511 0.000031 -0.000004
							CHANNELS 6 Xposition Yposition Zposition Xrotation Yrotation Zrotation
							JOINT mixamorig:RightHand
							{
								OFFSET -28.328831 -0.000015 0.000015
								CHANNELS 6 Xposition Yposition Zposition Xrotation Yrotation Zrotation
								JOINT mixamorig:RightHandThumb1
								{
									OFFSET -2.464806 -1.573990 2.681852
									CHANNELS 6 Xposition Yposition Zposition Xrotation Yrotation Zrotation
									JOINT mixamorig:RightHandThumb2
									{
										OFFSET -3.215179 -1.872803 1.924282
										CHANNELS 6 Xposition Yposition Zposition Xrotation Yrotation Zrotation
										JOINT mixamorig:RightHandThumb3
										{
											OFFSET -2.654831 -1.527969 1.512609
											CHANNELS 6 Xposition Yposition Zposition Xrotation Yrotation Zrotation
											JOINT mixamorig:RightHandThumb4
											{
												OFFSET -2.018814 -1.152008 1.108052
												CHANNELS 6 Xposition Yposition Zposition Xrotation Yrotation Zrotation
												End Site
												{
													OFFSET -188.809540 -114.533607 132.431396
												}
											}
										}
									}
								}
								JOINT mixamorig:RightHandIndex1
								{
									OFFSET -9.108284 -0.517868 2.259835
									CHANNELS 6 Xposition Yposition Zposition Xrotation Yrotation Zrotation
									JOINT mixamorig:RightHandIndex2
									{
										OFFSET -3.699989 0.000000 0.001215
										CHANNELS 6 Xposition Yposition Zposition Xrotation Yrotation Zrotation
										JOINT mixamorig:RightHandIndex3
										{
											OFFSET -2.850006 0.000031 -0.000522
											CHANNELS 6 Xposition Yposition Zposition Xrotation Yrotation Zrotation
											JOINT mixamorig:RightHandIndex4
											{
												OFFSET -2.772186 -0.000015 -0.000020
												CHANNELS 6 Xposition Yposition Zposition Xrotation Yrotation Zrotation
												End Site
												{
													OFFSET -277.218445 0.000000 -0.050231
												}
											}
										}
									}
								}
								JOINT mixamorig:RightHandMiddle1
								{
									OFFSET -9.532516 -0.000031 -0.000023
									CHANNELS 6 Xposition Yposition Zposition Xrotation Yrotation Zrotation
									JOINT mixamorig:RightHandMiddle2
									{
										OFFSET -3.700005 -0.000015 0.003713
										CHANNELS 6 Xposition Yposition Zposition Xrotation Yrotation Zrotation
										JOINT mixamorig:RightHandMiddle3
										{
											OFFSET -2.949974 0.000015 -0.002054
											CHANNELS 6 Xposition Yposition Zposition Xrotation Yrotation Zrotation
											JOINT mixamorig:RightHandMiddle4
											{
												OFFSET -2.946640 0.000000 -0.000156
												CHANNELS 6 Xposition Yposition Zposition Xrotation Yrotation Zrotation
												End Site
												{
													OFFSET -294.664337 0.000000 -0.113670
												}
											}
										}
									}
								}
								JOINT mixamorig:RightHandRing1
								{
									OFFSET -9.103600 -0.043076 -1.865134
									CHANNELS 6 Xposition Yposition Zposition Xrotation Yrotation Zrotation
									JOINT mixamorig:RightHandRing2
									{
										OFFSET -3.379288 0.000000 -0.001055
										CHANNELS 6 Xposition Yposition Zposition Xrotation Yrotation Zrotation
										JOINT mixamorig:RightHandRing3
										{
											OFFSET -2.889687 -0.000015 0.000379
											CHANNELS 6 Xposition Yposition Zposition Xrotation Yrotation Zrotation
											JOINT mixamorig:RightHandRing4
											{
												OFFSET -2.638809 -0.000015 0.000941
												CHANNELS 6 Xposition Yposition Zposition Xrotation Yrotation Zrotation
												End Site
												{
													OFFSET -263.880371 0.000000 0.516020
												}
											}
										}
									}
								}
								JOINT mixamorig:RightHandPinky1
								{
									OFFSET -8.076683 -0.486710 -3.806280
									CHANNELS 6 Xposition Yposition Zposition Xrotation Yrotation Zrotation
									JOINT mixamorig:RightHandPinky2
									{
										OFFSET -3.600014 -0.000015 -0.003747
										CHANNELS 6 Xposition Yposition Zposition Xrotation Yrotation Zrotation
										JOINT mixamorig:RightHandPinky3
										{
											OFFSET -2.099983 0.000000 -0.005739
											CHANNELS 6 Xposition Yposition Zposition Xrotation Yrotation Zrotation
											JOINT mixamorig:RightHandPinky4
											{
												OFFSET -2.115768 -0.000031 -0.003680
												CHANNELS 6 Xposition Yposition Zposition Xrotation Yrotation Zrotation
												End Site
												{
													OFFSET -211.577087 0.000000 -0.350686
												}
											}
										}
									}
								}
							}
						}
					}
				}
				JOINT mixamorig:LeftShoulder
				{
					OFFSET 4.570447 11.014725 -2.160855
					CHANNELS 6 Xposition Yposition Zposition Xrotation Yrotation Zrotation
					JOINT mixamorig:LeftArm
					{
						OFFSET 10.592371 -0.524597 -2.232119
						CHANNELS 6 Xposition Yposition Zposition Xrotation Yrotation Zrotation
						JOINT mixamorig:LeftForeArm
						{
							OFFSET 27.841532 -0.000031 0.000026
							CHANNELS 6 Xposition Yposition Zposition Xrotation Yrotation Zrotation
							JOINT mixamorig:LeftHand
							{
								OFFSET 28.328846 -0.000061 0.000022
								CHANNELS 6 Xposition Yposition Zposition Xrotation Yrotation Zrotation
								JOINT mixamorig:LeftHandThumb1
								{
									OFFSET 2.466141 -1.576172 2.681732
									CHANNELS 6 Xposition Yposition Zposition Xrotation Yrotation Zrotation
									JOINT mixamorig:LeftHandThumb2
									{
										OFFSET 3.217812 -1.872070 1.916482
										CHANNELS 6 Xposition Yposition Zposition Xrotation Yrotation Zrotation
										JOINT mixamorig:LeftHandThumb3
										{
											OFFSET 2.656029 -1.528778 1.514513
											CHANNELS 6 Xposition Yposition Zposition Xrotation Yrotation Zrotation
											JOINT mixamorig:LeftHandThumb4
											{
												OFFSET 2.020889 -1.154053 1.115139
												CHANNELS 6 Xposition Yposition Zposition Xrotation Yrotation Zrotation
												End Site
												{
													OFFSET 190.885437 -115.081749 130.048782
												}
											}
										}
									}
								}
								JOINT mixamorig:LeftHandIndex1
								{
									OFFSET 9.109314 -0.518021 2.259871
									CHANNELS 6 Xposition Yposition Zposition Xrotation Yrotation Zrotation
									JOINT mixamorig:LeftHandIndex2
									{
										OFFSET 3.699989 0.000000 -0.000322
										CHANNELS 6 Xposition Yposition Zposition Xrotation Yrotation Zrotation
										JOINT mixamorig:LeftHandIndex3
										{
											OFFSET 2.850006 0.000000 0.000352
											CHANNELS 6 Xposition Yposition Zposition Xrotation Yrotation Zrotation
											JOINT mixamorig:LeftHandIndex4
											{
												OFFSET 2.774864 -0.000031 -0.000027
												CHANNELS 6 Xposition Yposition Zposition Xrotation Yrotation Zrotation
												End Site
												{
													OFFSET 277.486267 0.000000 -0.009857
												}
											}
										}
									}
								}
								JOINT mixamorig:LeftHandMiddle1
								{
									OFFSET 9.533394 0.000061 0.000044
									CHANNELS 6 Xposition Yposition Zposition Xrotation Yrotation Zrotation
									JOINT mixamorig:LeftHandMiddle2
									{
										OFFSET 3.699989 -0.000015 -0.000231
										CHANNELS 6 Xposition Yposition Zposition Xrotation Yrotation Zrotation
										JOINT mixamorig:LeftHandMiddle3
										{
											OFFSET 2.949997 -0.000015 -0.000059
											CHANNELS 6 Xposition Yposition Zposition Xrotation Yrotation Zrotation
											JOINT mixamorig:LeftHandMiddle4
											{
												OFFSET 2.952896 0.000031 0.000063
												CHANNELS 6 Xposition Yposition Zposition Xrotation Yrotation Zrotation
												End Site
												{
													OFFSET 295.289337 0.000000 0.022810
												}
											}
										}
									}
								}
								JOINT mixamorig:LeftHandRing1
								{
									OFFSET 9.104523 -0.042999 -1.865074
									CHANNELS 6 Xposition Yposition Zposition Xrotation Yrotation Zrotation
									JOINT mixamorig:LeftHandRing2
									{
										OFFSET 3.150009 -0.000031 0.000043
										CHANNELS 6 Xposition Yposition Zposition Xrotation Yrotation Zrotation
										JOINT mixamorig:LeftHandRing3
										{
											OFFSET 2.949982 -0.000015 0.000040
											CHANNELS 6 Xposition Yposition Zposition Xrotation Yrotation Zrotation
											JOINT mixamorig:LeftHandRing4
											{
												OFFSET 2.644348 0.000000 0.000057
												CHANNELS 6 Xposition Yposition Zposition Xrotation Yrotation Zrotation
												End Site
												{
													OFFSET 264.434631 0.000000 0.012105
												}
											}
										}
									}
								}
								JOINT mixamorig:LeftHandPinky1
								{
									OFFSET 8.077789 -0.486847 -3.806259
									CHANNELS 6 Xposition Yposition Zposition Xrotation Yrotation Zrotation
									JOINT mixamorig:LeftHandPinky2
									{
										OFFSET 3.599953 0.000031 0.014727
										CHANNELS 6 Xposition Yposition Zposition Xrotation Yrotation Zrotation
										JOINT mixamorig:LeftHandPinky3
										{
											OFFSET 2.100021 0.000015 0.007705
											CHANNELS 6 Xposition Yposition Zposition Xrotation Yrotation Zrotation
											JOINT mixamorig:LeftHandPinky4
											{
												OFFSET 2.125504 0.000031 0.007517
												CHANNELS 6 Xposition Yposition Zposition Xrotation Yrotation Zrotation
												End Site
												{
													OFFSET 212.550781 0.000000 0.625752
												}
											}
										}
									}
								}
							}
						}
					}
				}
			}
		}
	}
	JOINT mixamorig:RightUpLeg
	{
		OFFSET -8.207787 -6.751648 -1.599560
		CHANNELS 6 Xposition Yposition Zposition Xrotation Yrotation Zrotation
		JOINT mixamorig:RightLeg
		{
			OFFSET -0.000002 -44.370117 0.345942
			CHANNELS 6 Xposition Yposition Zposition Xrotation Yrotation Zrotation
			JOINT mixamorig:RightFoot
			{
				OFFSET 0.000003 -44.423679 -3.043532
				CHANNELS 6 Xposition Yposition Zposition Xrotation Yrotation Zrotation
				JOINT mixamorig:RightToeBase
				{
					OFFSET -0.000002 -8.728671 10.710558
					CHANNELS 6 Xposition Yposition Zposition Xrotation Yrotation Zrotation
					JOINT mixamorig:RightToe_End
					{
						OFFSET -0.000001 -0.000679 9.278119
						CHANNELS 6 Xposition Yposition Zposition Xrotation Yrotation Zrotation
						End Site
						{
							OFFSET 0.000000 -0.067690 927.812134
						}
					}
				}
			}
		}
	}
	JOINT mixamorig:LeftUpLeg
	{
		OFFSET 8.207793 -6.751686 -1.599556
		CHANNELS 6 Xposition Yposition Zposition Xrotation Yrotation Zrotation
		JOINT mixamorig:LeftLeg
		{
			OFFSET -0.000004 -44.370014 0.346954
			CHANNELS 6 Xposition Yposition Zposition Xrotation Yrotation Zrotation
			JOINT mixamorig:LeftFoot
			{
				OFFSET -0.000001 -44.423672 -3.044401
				CHANNELS 6 Xposition Yposition Zposition Xrotation Yrotation Zrotation
				JOINT mixamorig:LeftToeBase
				{
					OFFSET -0.000002 -8.728669 10.710558
					CHANNELS 6 Xposition Yposition Zposition Xrotation Yrotation Zrotation
					JOINT mixamorig:LeftToe_End
					{
						OFFSET -0.000003 -0.000679 9.278133
						CHANNELS 6 Xposition Yposition Zposition Xrotation Yrotation Zrotation
						End Site
						{
							OFFSET 0.000000 -0.068021 927.813477
						}
					}
				}
			}
		}
	}
}
MOTION
Frames: 3
Frame Time: 0.033333
0.000006 104.270477 1.554256 0.000010 0.000003 -0.000113 -0.000005 10.181587 0.131522 0.000001 -0.000003 0.000084 -0.000000 9.893967 -1.470711 0.000001 0.000000 -0.000000 -0.000000 9.220802 -1.370642 0.000000 -0.000000 -0.000000 0.000001 16.740433 -2.049030 0.000000 -0.000000 -0.000000 0.000000 9.617859 1.685014 0.000000 0.000000 0.000000 0.000002 22.037384 7.501101 0.000000 -0.000000 0.000000 -4.569968 11.014880 -2.160881 0.000008 0.000001 -0.000038 -10.592785 -0.524835 -2.231751 73.842527 64.414476 -50.657867 -27.841486 0.000001 0.000569 25.375543 101.297648 -30.705768 -28.328829 0.000009 0.000026 -0.000320 -0.000045 0.000007 -2.464919 -1.574085 2.682122 106.659968 -205.697144 166.004920 -3.215172 -1.872976 1.924592 75.478774 179.326412 -208.577858 -2.654698 -1.528225 1.513103 30.219728 199.373864 -248.883323 -2.018838 -1.151983 1.108062 -0.000002 -0.000002 0.000004 -9.108089 -0.517796 2.260438 187.469896 22.267585 -216.818754 -3.699727 0.000028 0.001824 181.006297 21.843099 -185.107443 -2.849864 0.000007 0.000059 175.188301 15.765815 -146.232397 -2.772165 -0.000003 -0.000020 0.000002 -0.000000 0.000001 -9.532294 0.000096 0.000577 189.142049 16.955412 -236.702719 -3.699750 0.000107 0.004307 185.439513 14.562096 -220.439219 -2.949794 0.000014 -0.001471 179.379182 11.186172 -173.601620 -2.946626 0.000001 -0.000155 0.000001 -0.000003 0.000001 -9.103410 -0.042894 -1.864531 192.427124 16.013957 -255.439158 -3.379052 0.000176 -0.000456 189.882401 12.879256 -254.923669 -2.889376 0.000162 0.000962 183.339339 7.915161 -225.985210 -2.638799 -0.000014 0.000941 0.000000 -0.000002 -0.000001 -8.076535 -0.486523 -3.805695 193.945926 14.290257 -268.568393 -3.599832 0.000137 -0.003150 192.048404 10.367047 -278.848784 -2.099825 0.000262 -0.005155 187.897165 5.713383 -288.818101 -2.115781 -0.000047 -0.003683 -0.000000 0.000000 -0.000004 4.570446 11.014691 -2.160851 -0.000018 0.000010 -0.000021 10.592508 -0.524563 -2.232371 53.787422 -67.213481 37.254218 27.841795 -0.000037 -0.000141 203.131656 -81.572109 206.688532 28.328840 -0.000029 0.000017 0.000021 -0.000088 -0.000000 2.466214 -1.576050 2.681901 77.561736 165.002603 -145.396245 3.217756 -1.872036 1.916561 13.718239 140.877009 -79.310497 2.655889 -1.528433 1.514432 141.605340 -31.860169 -39.116353 2.020895 -1.154084 1.115146 0.000001 0.000003 0.000004 9.109444 -0.517798 2.259831 142.638843 -15.334569 43.385891 3.700129 0.000127 -0.000289 -8.998367 -172.110781 262.647575 2.850051 0.000375 0.000456 14.786854 -181.230942 -170.525959 2.774884 -0.000032 -0.000021 0.000003 -0.000003 -0.000002 9.533315 0.000011 0.000124 176.868609 -17.348267 159.631206 3.700000 0.000193 0.000003 264.331435 -0.973913 -1.072935 2.950015 -0.000006 0.000021 324.656322 11.084900 3.540534 2.952854 -0.000014 0.000066 -0.000000 0.000000 -0.000002 9.104266 -0.042818 -1.864967 188.959342 -11.535296 615.599431 3.150023 0.000096 0.000232 283.904681 15.736655 12.344442 2.949964 0.000003 0.000060 -22.270470 18.790740 3.730245 2.644313 0.000029 0.000054 -0.000001 -0.000002 -0.000001 8.077614 -0.486525 -3.806118 199.369342 -8.156124 313.360145 3.599974 0.000166 0.014931 276.310112 8.109309 6.837476 2.099999 0.000003 0.007757 -22.884805 14.763488 2.869052 2.125488 -0.000016 0.007525 -0.000000 0.000003 0.000000 -8.207786 -6.751667 -1.599560 -0.077001 -0.000003 0.000080 -0.000002 -44.370110 0.345938 0.153719 -0.000000 -0.000000 0.000000 -44.423679 -3.043532 -0.076700 0.000000 -0.000002 -0.000006 -8.728667 10.710559 -0.000009 -0.000000 -0.000000 -0.000001 -0.000679 9.278123 0.000000 -0.000000 -0.000000 8.207792 -6.751710 -1.599556 -0.074518 -0.000003 0.000081 -0.000002 -44.370014 0.346960 0.148822 0.000002 0.000000 -0.000001 -44.423664 -3.044403 -0.074314 0.000000 -0.000002 -0.000004 -8.728671 10.710558 0.000007 -0.000000 -0.000000 0.000000 -0.000680 9.278137 -0.000000 0.000000 -0.000001 
0.000006 104.270477 1.554256 0.000010 0.000003 -0.000113 -0.000005 10.181587 0.131522 0.000001 -0.000003 0.000084 -0.000000 9.893967 -1.470711 0.000001 0.000000 -0.000000 -0.000000 9.220802 -1.370642 0.000000 -0.000000 -0.000000 0.000001 16.740433 -2.049030 0.000000 -0.000000 -0.000000 0.000000 9.617859 1.685014 0.000000 0.000000 0.000000 0.000002 22.037384 7.501101 0.000000 -0.000000 0.000000 -4.569968 11.014880 -2.160881 0.000008 0.000001 -0.000038 -10.592783 -0.524848 -2.231752 73.893658 64.679617 -50.926642 -27.841492 0.000003 0.000582 26.028155 101.083344 -31.368976 -28.328842 0.000006 0.000031 -0.000321 -0.000045 0.000006 -2.464903 -1.574095 2.682133 106.121831 -203.930283 165.563389 -3.215165 -1.872999 1.924620 72.398742 183.430973 -211.776709 -2.654648 -1.528203 1.513113 25.443489 202.773058 -256.273397 -2.018842 -1.151983 1.108066 -0.000002 -0.000003 0.000002 -9.108083 -0.517784 2.260440 187.809111 21.401687 -219.833627 -3.699740 0.000023 0.001824 180.645280 20.977714 -183.374255 -2.849879 -0.000022 0.000056 174.604606 15.082157 -140.808421 -2.772159 0.000002 -0.000019 0.000001 -0.000002 -0.000002 -9.532282 0.000101 0.000582 188.928838 16.437789 -237.078380 -3.699738 0.000106 0.004306 184.982437 14.117352 -218.340507 -2.949798 -0.000009 -0.001477 178.577113 10.724573 -164.855768 -2.946621 -0.000000 -0.000150 -0.000000 0.000004 0.000001 -9.103423 -0.042899 -1.864533 191.965431 15.453320 -255.323563 -3.379058 0.000168 -0.000451 189.694721 12.720875 -254.549157 -2.889378 0.000145 0.000964 182.477000 7.805905 -215.535594 -2.638808 -0.000014 0.000942 -0.000004 0.000002 -0.000001 -8.076530 -0.486529 -3.805687 193.518097 13.469324 -270.203923 -3.599827 0.000139 -0.003151 191.859372 9.969180 -280.218756 -2.099811 0.000243 -0.005153 187.511833 5.600071 -287.145360 -2.115773 -0.000047 -0.003678 -0.000001 0.000002 -0.000004 4.570446 11.014691 -2.160851 -0.000018 0.000010 -0.000021 10.592508 -0.524549 -2.232375 53.965816 -67.199506 37.378914 27.841782 -0.000020 -0.000138 203.653688 -81.801160 207.179240 28.328833 -0.000045 0.000018 0.000018 -0.000089 -0.000000 2.466212 -1.576017 2.681918 78.116607 166.879717 -146.454473 3.217783 -1.872024 1.916541 13.760169 142.905343 -80.970069 2.655853 -1.528408 1.514442 140.623404 -31.746388 -44.647929 2.020884 -1.154066 1.115157 -0.000000 -0.000004 -0.000001 9.109442 -0.517773 2.259828 145.157789 -14.846895 45.060353 3.700073 0.000043 -0.000260 -4.780088 -174.018084 283.058066 2.850089 0.000306 0.000473 20.603148 -184.441486 -155.905884 2.774877 -0.000032 -0.000031 0.000001 -0.000003 -0.000002 9.533257 0.000033 0.000131 179.391927 -16.276257 175.697778 3.700018 0.000152 -0.000004 264.703216 4.515923 4.956084 2.950016 -0.000025 0.000038 326.458863 13.779087 4.169667 2.952861 -0.000026 0.000051 -0.000000 -0.000000 0.000002 9.104281 -0.042755 -1.864967 190.563821 -10.490693 630.399905 3.150046 0.000082 0.000220 283.090359 18.636888 14.847134 2.949984 -0.000024 0.000039 -20.913030 20.403218 3.803855 2.644304 0.000012 0.000053 0.000002 0.000000 -0.000001 8.077624 -0.486488 -3.806116 200.428035 -8.001121 316.257047 3.599994 0.000155 0.014937 275.806973 8.801300 7.519882 2.099994 -0.000017 0.007743 -22.085196 15.541308 2.916090 2.125505 -0.000016 0.007521 -0.000000 -0.000006 -0.000000 -8.207786 -6.751667 -1.599560 -0.077001 -0.000003 0.000080 -0.000002 -44.370110 0.345938 0.153719 -0.000000 -0.000000 0.000000 -44.423679 -3.043532 -0.076700 0.000000 -0.000002 -0.000006 -8.728667 10.710559 -0.000009 -0.000000 -0.000000 -0.000001 -0.000679 9.278123 0.000000 -0.000000 -0.000000 8.207792 -6.751710 -1.599556 -0.074518 -0.000003 0.000081 -0.000002 -44.370014 0.346960 0.148822 0.000002 0.000000 -0.000001 -44.423664 -3.044403 -0.074314 0.000000 -0.000002 -0.000004 -8.728671 10.710558 0.000007 -0.000000 -0.000000 0.000000 -0.000680 9.278137 -0.000000 0.000000 -0.000001 
0.000006 104.270477 1.554256 0.000010 0.000003 -0.000113 -0.000005 10.181587 0.131522 0.000001 -0.000003 0.000084 -0.000000 9.893967 -1.470711 0.000001 0.000000 -0.000000 -0.000000 9.220802 -1.370642 0.000000 -0.000000 -0.000000 0.000001 16.740433 -2.049030 0.000000 -0.000000 -0.000000 0.000000 9.617859 1.685014 0.000000 0.000000 0.000000 0.000002 22.037384 7.501101 0.000000 -0.000000 0.000000 -4.569968 11.014880 -2.160881 0.000008 0.000001 -0.000038 -10.592787 -0.524842 -2.231753 73.921505 65.685396 -51.814935 -27.841496 0.000023 0.000577 26.663255 100.314954 -31.708542 -28.328838 0.000006 0.000030 -0.000321 -0.000045 0.000008 -2.464905 -1.574101 2.682111 105.073670 -201.882948 165.007193 -3.215164 -1.873021 1.924612 73.159973 184.164631 -211.873288 -2.654679 -1.528207 1.513119 27.858837 200.495149 -251.977372 -2.018835 -1.151981 1.108064 -0.000005 0.000000 0.000005 -9.108074 -0.517801 2.260441 186.588515 21.628484 -213.666431 -3.699751 0.000037 0.001822 179.670039 21.149488 -178.118848 -2.849855 -0.000021 0.000050 174.298231 15.137716 -138.903139 -2.772164 -0.000013 -0.000025 -0.000000 0.000006 0.000000 -9.532295 0.000106 0.000589 188.825210 16.652893 -235.900199 -3.699747 0.000103 0.004304 185.121417 14.269032 -218.953434 -2.949765 0.000017 -0.001471 179.705692 10.849362 -176.835906 -2.946631 0.000014 -0.000155 -0.000002 -0.000001 -0.000000 -9.103415 -0.042893 -1.864529 192.309891 15.738837 -255.884021 -3.379044 0.000168 -0.000452 190.371538 13.006395 -257.069141 -2.889388 0.000174 0.000964 183.921954 8.030954 -232.242332 -2.638802 0.000005 0.000938 0.000006 0.000000 0.000000 -8.076553 -0.486546 -3.805685 194.139589 13.861449 -271.151789 -3.599855 0.000141 -0.003155 192.499483 9.794718 -284.286707 -2.099830 0.000244 -0.005154 188.255122 5.374830 -294.620948 -2.115763 -0.000062 -0.003679 -0.000003 -0.000000 -0.000005 4.570446 11.014691 -2.160851 -0.000018 0.000010 -0.000021 10.592506 -0.524550 -2.232374 54.125073 -67.853503 37.931459 27.841785 -0.000053 -0.000130 204.164463 -82.119310 207.611263 28.328833 -0.000016 0.000015 0.000020 -0.000089 -0.000001 2.466214 -1.576026 2.681904 78.448520 164.718741 -145.675982 3.217777 -1.872031 1.916535 10.329185 141.790643 -76.063896 2.655882 -1.528426 1.514439 140.356385 -31.579964 -43.805910 2.020891 -1.154066 1.115153 0.000004 0.000006 0.000006 9.109431 -0.517775 2.259831 146.394791 -13.699974 43.346392 3.699988 -0.000039 -0.000260 -1.252717 -176.662187 319.446609 2.850095 0.000309 0.000486 22.332500 -186.377981 -148.469079 2.774878 -0.000031 -0.000025 -0.000001 0.000000 0.000000 9.533196 0.000068 0.000139 181.988683 -16.234815 193.832354 3.700032 0.000148 -0.000010 273.839523 6.084753 5.693063 2.950019 -0.000018 0.000003 331.339471 15.554941 3.995647 2.952872 -0.000015 0.000081 -0.000001 -0.000001 0.000001 9.104278 -0.042733 -1.864951 192.203777 -10.747857 637.306537 3.150047 0.000080 0.000194 287.161042 18.901029 14.001235 2.949962 0.000001 0.000031 -19.668308 21.340455 3.740733 2.644314 0.000029 0.000056 0.000001 0.000001 0.000001 8.077629 -0.486511 -3.806114 201.628004 -8.171042 317.712697 3.599975 0.000132 0.014931 280.131630 9.466875 7.523321 2.100004 -0.000001 0.007761 -21.573146 16.536366 3.035288 2.125497 -0.000016 0.007502 -0.000000 -0.000003 -0.000000 -8.207786 -6.751667 -1.599560 -0.077001 -0.000003 0.000080 -0.000002 -44.370110 0.345938 0.153719 -0.000000 -0.000000 0.000000 -44.423679 -3.043532 -0.076700 0.000000 -0.000002 -0.000006 -8.728667 10.710559 -0.000009 -0.000000 -0.000000 -0.000001 -0.000679 9.278123 0.000000 -0.000000 -0.000000 8.207792 -6.751710 -1.599556 -0.074518 -0.000003 0.000081 -0.000002 -44.370014 0.346960 0.148822 0.000002 0.000000 -0.000001 -44.423664 -3.044403 -0.074314 0.000000 -0.000002 -0.000004 -8.728671 10.710558 0.000007 -0.000000 -0.000000 0.000000 -0.000680 9.278137 -0.000000 0.000000 -0.000001 
